PathFileType	4	(X/Y/Z)	C:\Users\°ÂÌØÂü\Desktop\20210112\bx_n_10_901-Unnamed.trc
DataRate	CameraRate	NumFrames	NumMarkers	Units	OrigDataRate	OrigDataStartFrame	OrigNumFrames
50.00	50.00	       5	0	mm	50.00	130	       518
Frame#	Time	
		

130	2.580	-206.49492	98.08885	1319.95264	-658.63202	298.87903	156.79198	-986.87927	86.41806	1082.04968	-798.54474	-12.12345	799.33112	-799.14447	205.70518	808.41034				-878.92206	278.55865	722.51263	-413.66901	255.62526	1116.44788	-876.78058	254.37056	618.36646	-779.12262	12.30190	522.62079	-793.54218	205.30290	533.77667	-871.77490	262.24826	477.14716	-518.08154	-72.95057	143.16161	-548.70654	-27.45551	163.12605	-813.19788	228.88501	994.78937	-791.41943	40.37926	170.79253	-597.07727	25.13996	168.07526	-670.41876	52.09030	164.23111	-723.41980	160.69154	223.24759	-799.78284	185.07491	178.39702	-774.19354	232.90665	200.54341	-594.69409	219.54643	173.72685	-882.74213	296.11002	144.64330	-557.11151	252.38531	163.42929	-823.76221	143.17786	565.59998	-622.08887	305.99881	157.77422	-528.07660	303.75058	146.25108	-852.51093	-38.77015	599.46735	-890.55560	-78.33788	850.71973	-858.72394	-46.68876	462.87558	-763.92883	-20.35964	200.02292	-876.43042	-78.40358	140.84256	-878.94208	-68.87393	735.28119	-856.83661	249.49226	558.04773	-401.51331	-66.87854	1119.30066	-844.81787	-35.82798	551.61407	-676.65942	176.66402	164.59415	-607.48975	-77.32408	155.09970	-648.58276	-68.88488	161.08241	-821.76062	71.51234	562.61395	-813.75934	-12.21239	975.97906	-909.33221	282.29147	856.46088	
131	2.600	-212.84827	98.72793	1337.11572	-658.73883	299.07037	156.65083	-986.91730	86.08877	1081.65747	-797.03204	-13.23884	800.16815	-797.84216	205.81839	808.38922				-877.74084	277.95520	722.65796				-876.06543	254.09166	618.87122	-778.40002	12.03583	522.73871	-792.93860	205.24809	534.01422	-871.02960	261.74503	477.19461	-518.05457	-72.69506	143.02911	-548.68262	-27.54393	163.10069	-812.73749	228.04156	996.12146	-791.52393	40.30803	170.95995	-597.25275	24.69162	168.53439	-670.75793	52.28066	164.04951	-723.37781	160.58635	223.24208	-799.78284	185.07491	178.39702	-774.28381	232.88791	200.72052	-594.61859	219.42427	173.62506	-882.44934	296.12988	144.71121	-557.18573	252.59608	163.40155	-823.12866	142.54611	565.86823	-622.08887	305.99881	157.77422	-528.34692	303.65192	146.32407	-851.53912	-38.98823	599.87097	-889.50726	-78.93993	851.42279	-858.06982	-46.85640	462.90686	-763.71460	-20.39283	200.22380	-876.32874	-78.17531	140.90875	-877.30463	-69.44825	736.03430	-856.16486	249.36743	558.09503				-843.99457	-36.18194	551.80402	-676.65942	176.66402	164.59415	-607.61621	-77.38583	155.11707	-648.70129	-68.79530	160.98131	-821.19995	70.50140	562.22900	-812.15967	-12.44506	977.52216	-908.46100	281.73380	857.07898	
132	2.620	-219.37514	99.27009	1354.50427	-658.76367	299.27850	156.61029	-986.96179	85.36832	1081.31140	-795.25128	-13.29360	800.03412	-796.52484	205.22559	808.81470	-420.70935	257.89377	1141.75281	-877.08832	277.32120	722.59985	-408.35446	-67.74025	1144.96509	-875.15320	253.62440	619.10040	-777.46039	11.79129	522.47150	-792.04523	204.91867	534.73547	-870.39777	261.51294	477.69946	-518.17828	-72.74334	142.99480	-548.66895	-27.53108	163.16090	-812.01471	228.00990	998.09357	-791.41943	40.37926	170.79253	-597.06342	24.63959	168.53099	-670.77179	52.24942	164.36346	-723.42279	160.71140	223.25430	-799.78284	185.07491	178.39702	-774.13086	232.96297	200.43253	-594.56042	219.62846	173.82698	-882.57434	296.15549	144.64362	-557.50317	252.56087	163.56551	-822.14807	142.28627	566.06580	-622.23859	306.07751	157.88217	-528.34692	303.65192	146.32407	-850.01007	-39.06207	599.73444	-886.68213	-78.50746	851.01123	-857.22101	-47.05585	463.24835	-763.77222	-20.44104	200.08928	-876.04547	-78.20718	140.65990	-875.66748	-69.66307	736.31470	-855.33716	248.94464	558.53033				-842.95306	-36.37384	551.73389	-676.65942	176.66402	164.59415	-607.52454	-77.56742	155.01822	-648.58276	-68.88488	161.08241	-820.39398	69.77286	562.49951	-810.45844	-12.83824	979.68304	-907.36475	281.16656	857.15381	
133	2.640	-226.52400	99.82810	1372.10498	-658.87384	299.47672	156.50366	-986.83618	84.52699	1080.73633	-793.68280	-13.90171	799.58783	-795.23120	205.27852	809.28723	-424.27438	259.06854	1154.75842	-876.05542	277.10638	723.21564	-412.75531	-68.39568	1157.72522	-874.24152	253.24644	619.27325	-776.47583	10.85803	522.63910	-791.26910	204.68460	534.38324	-869.88470	261.63110	478.31052	-518.23120	-72.87070	142.98477	-548.50128	-27.67228	163.16183	-810.20654	229.37114	1001.14862	-791.36316	40.41011	170.84354	-597.16931	24.58675	168.28703	-670.41876	52.09030	164.23111	-723.18768	160.58717	223.28101	-799.63202	185.15088	178.15598	-774.19354	232.90665	200.54341	-594.48492	219.50630	173.72519	-882.59009	295.93652	144.44270	-557.42389	252.78465	163.40582	-820.95508	142.21057	565.87982	-622.30096	306.11288	157.61018	-528.28461	303.82397	146.31311	-849.33527	-39.31743	599.83026	-885.19373	-79.46323	852.11493	-856.67017	-47.27369	463.23972	-763.70251	-20.50858	200.08795	-876.10394	-78.28648	140.76051	-874.42084	-70.34084	736.40894	-854.60522	248.62184	558.73523	-725.24280	66.14153	220.55997	-841.96606	-36.71955	552.06329	-676.65942	176.66402	164.59415	-607.49182	-77.73209	155.22574	-648.79553	-68.92027	160.97157	-819.36859	69.49763	562.45514	-808.86627	-13.33970	982.04187	-906.07880	280.59671	857.55322	
134	2.660	-233.73686	100.80620	1389.61255	-659.13434	298.88754	156.21251	-986.96680	84.05702	1080.52087	-792.10590	-14.53026	799.51904	-793.74762	205.15025	809.38470				-874.68628	276.32034	723.54529	-417.19400	-68.76395	1171.76160	-872.95935	253.24603	619.89984				-790.12659	204.06349	534.37939	-869.05615	261.50894	478.56079	-518.02393	-72.74818	143.24820	-548.58398	-27.69547	163.20726	-809.34454	229.39134	1003.71118	-791.51166	40.12502	170.84462	-596.95459	24.26811	168.85104	-670.77179	52.24942	164.36346	-722.93329	160.51730	223.11697	-799.79504	185.00786	178.44191	-774.22449	232.79529	200.75156	-594.68768	219.52844	173.85767	-882.56006	296.11014	144.61603	-557.53741	252.81462	163.67928	-820.00714	141.84442	566.38702	-622.23175	305.97800	157.58183	-528.18835	303.60492	146.40642	-847.66815	-40.16518	600.48138	-883.45398	-79.53637	852.34521	-855.57538	-46.73033	462.59171	-763.71259	-20.49824	200.25459	-876.02258	-78.21648	140.66121	-873.09821	-70.97128	736.68091	-853.51282	248.52556	559.41895	-725.18207	66.27223	220.57941	-840.62457	-37.11527	552.26666	-676.65942	176.66402	164.59415	-607.55072	-77.49124	154.88762	-648.78888	-69.34949	161.15714	-818.33612	68.90482	562.74371	-806.68347	-13.32735	984.25482	-904.99780	279.86627	857.79199	
